<svg width="38" height="31" viewBox="0 0 38 31" fill="none" xmlns="http://www.w3.org/2000/svg">
<path d="M37.9941 15.8349C37.9941 10.1752 33.4062 5.58736 27.7465 5.58736C26.8439 5.58736 25.9454 5.70647 25.074 5.94163C21.319 6.73922 18.3316 9.58497 16.0101 12.726C14.5106 14.7549 13.0034 16.6151 10.3857 17.1103C7.96706 17.5681 4.66529 16.1744 4.43731 13.4405C4.35036 12.3957 4.65617 11.1205 5.24374 10.2445C6.19651 8.82315 7.96516 10.1436 9.22234 10.2847C10.1274 10.3859 11.1189 10.4298 11.9972 10.1434C13.7534 9.57123 14.1154 8.16665 13.1141 6.73361C12.1286 5.32286 10.4684 4.48565 8.74732 4.49147C7.7623 4.49491 6.29489 4.86158 5.57367 5.59361C6.14784 4.39589 5.33441 2.79301 4.86787 2.12676C3.9393 0.800304 1.52866 -0.352037 0.358923 1.34839C-0.456685 2.5339 0.277229 4.85976 0.979588 5.93826C1.36723 6.53354 1.92478 7.09376 2.08214 7.8086C2.25394 8.58859 1.87359 9.28604 1.60369 9.99695C1.32319 10.7356 1.04151 11.4954 0.914864 12.2748C3.05772e-05 17.9023 1.55467 22.672 5.53861 26.1007C6.58583 27.0019 7.78207 27.8047 9.01267 28.4353C10.5137 29.204 12.2384 29.8182 13.891 30.1614C15.5459 30.505 17.3352 30.7475 19.0284 30.7475C26.9007 30.7475 33.6408 26.8263 36.4359 21.265C37.422 19.6903 37.9941 17.8299 37.9941 15.8349Z" fill="white"/>
</svg>
